<svg width="15" height="15" viewBox="0 0 15 15" fill="none" xmlns="http://www.w3.org/2000/svg">
<path fill-rule="evenodd" clip-rule="evenodd" d="M2 6.75C2 4.40279 3.90279 2.5 6.25 2.5C8.59721 2.5 10.5 4.40279 10.5 6.75C10.5 9.09721 8.59721 11 6.25 11C3.90279 11 2 9.09721 2 6.75ZM6.25 0.5C2.79822 0.5 0 3.29822 0 6.75C0 10.2018 2.79822 13 6.25 13C7.51831 13 8.69838 12.6222 9.68382 11.973L12.6679 14.9571L14.0821 13.5429L11.1586 10.6193C11.9986 9.5551 12.5 8.2111 12.5 6.75C12.5 3.29822 9.70178 0.5 6.25 0.5Z" fill="#BEC5D8"/>
</svg>
