<svg width="17" height="21" viewBox="0 0 17 21" fill="none" xmlns="http://www.w3.org/2000/svg">
<path d="M16.2468 4.50319L11.8718 0.128174C11.7898 0.0461426 11.6787 0 11.5625 0H2.37497C1.40983 0 0.625 0.784834 0.625 1.75001V19.25C0.625 20.2152 1.40983 21 2.37501 21H14.625C15.5902 21 16.375 20.2152 16.375 19.25V4.81249C16.375 4.69629 16.3289 4.58522 16.2468 4.50319ZM12 1.49367L14.8813 4.37501H12.875C12.3926 4.37501 12 3.98237 12 3.50003V1.49367ZM15.5 19.25C15.5 19.7323 15.1074 20.125 14.625 20.125H2.37501C1.89267 20.125 1.50003 19.7323 1.50003 19.25V1.75001C1.50003 1.26767 1.89267 0.875027 2.37501 0.875027H11.125V3.50003C11.125 4.46517 11.9098 5.25 12.875 5.25H15.5V19.25Z" fill="#FB3030"/>
<path d="M10.7306 12.8435C10.3256 12.5247 9.94067 12.197 9.68433 11.9407C9.35107 11.6074 9.05412 11.2845 8.79609 10.9768C9.19858 9.73312 9.37503 9.09184 9.37503 8.75001C9.37503 7.29781 8.85036 7 8.06253 7C7.46395 7 6.75003 7.31102 6.75003 8.79189C6.75003 9.44474 7.10764 10.2373 7.81643 11.1584C7.64298 11.6878 7.43917 12.2983 7.21018 12.9866C7.09993 13.3169 6.98033 13.6228 6.85384 13.9056C6.75089 13.9513 6.65089 13.9979 6.55434 14.0462C6.20657 14.2201 5.87631 14.3764 5.56997 14.5217C4.17285 15.1831 3.25 15.6206 3.25 16.4845C3.25 17.1117 3.93147 17.5 4.5625 17.5C5.37596 17.5 6.6043 16.4135 7.50152 14.5832C8.4329 14.2158 9.59077 13.9436 10.5046 13.7731C11.2369 14.3362 12.0457 14.875 12.4375 14.875C13.5223 14.875 13.75 14.2478 13.75 13.7218C13.75 12.6875 12.5682 12.6875 12 12.6875C11.8235 12.6875 11.3502 12.7396 10.7306 12.8435ZM4.5625 16.625C4.31255 16.625 4.14336 16.5071 4.12499 16.4845C4.12499 16.1743 5.04997 15.7359 5.94464 15.3121C6.00145 15.2852 6.05916 15.2582 6.11769 15.2305C5.46058 16.1833 4.81073 16.625 4.5625 16.625ZM7.62501 8.79189C7.62501 7.87503 7.90958 7.87503 8.06253 7.87503C8.37187 7.87503 8.50004 7.87503 8.50004 8.75001C8.50004 8.93458 8.37699 9.39601 8.15182 10.1164C7.80827 9.58743 7.62501 9.13412 7.62501 8.79189ZM7.9604 13.4942C7.98776 13.4181 8.01425 13.3412 8.03989 13.2635C8.20223 12.7764 8.34836 12.3389 8.47867 11.945C8.66025 12.1449 8.85593 12.3496 9.06573 12.5593C9.14776 12.6414 9.35111 12.8259 9.62202 13.0571C9.08275 13.1746 8.50898 13.3203 7.9604 13.4942ZM12.875 13.7219C12.875 13.9184 12.875 14 12.4691 14.0026C12.3499 13.977 12.0743 13.8146 11.7342 13.583C11.8577 13.5694 11.9487 13.5625 12 13.5625C12.6464 13.5625 12.8297 13.6257 12.875 13.7219Z" fill="#FB3030"/>
</svg>
